<svg xmlns="http://www.w3.org/2000/svg" xmlns:xlink="http://www.w3.org/1999/xlink" width="1280" zoomAndPan="magnify" viewBox="0 0 960 270.749989" height="361" preserveAspectRatio="xMidYMid meet" version="1.0"><defs><g/><clipPath id="204ea6b95c"><path d="M 0.441406 0 L 247.964844 0 L 247.964844 270.5 L 0.441406 270.5 Z M 0.441406 0 " clip-rule="nonzero"/></clipPath><clipPath id="af1d738b3e"><path d="M 16.355469 145.117188 L 22.628906 145.117188 L 22.410156 236.6875 C 18.289062 247.804688 15.285156 259.6875 13.503906 271.570312 C 13.347656 271.996094 13.28125 272.421875 13.304688 272.863281 C 12.566406 278.046875 12.074219 283.203125 11.8125 288.292969 C 11.625 288.902344 11.554688 289.53125 11.710938 290.125 C 11.023438 307.308594 13.105469 323.46875 18.378906 335.878906 C 19.949219 339.574219 23.066406 342.257812 26.9375 343.253906 C 28 343.523438 29.066406 343.660156 30.121094 343.660156 C 32.921875 343.660156 35.652344 342.726562 37.921875 340.941406 L 38.289062 340.652344 C 40.425781 341.953125 42.980469 342.632812 45.964844 342.632812 C 46.460938 342.632812 46.996094 342.578125 47.519531 342.539062 C 49.320312 372.398438 53.484375 391.765625 55.304688 399.066406 C 51.628906 400.367188 48.316406 402.125 45.421875 404.328125 C 41.132812 407.589844 39.488281 413.019531 41.222656 418.15625 C 42.984375 423.382812 47.664062 426.761719 53.148438 426.761719 L 105.570312 426.761719 C 109.628906 426.761719 113.476562 425 116.128906 421.929688 C 118.796875 418.839844 119.988281 414.738281 119.386719 410.6875 C 115.835938 386.59375 116.164062 362.308594 120.355469 338.503906 C 120.675781 336.652344 122.3125 335.3125 124.246094 335.3125 C 126.179688 335.3125 127.820312 336.652344 128.144531 338.503906 C 132.335938 362.308594 132.664062 386.59375 129.109375 410.6875 C 128.511719 414.742188 129.699219 418.839844 132.371094 421.933594 C 135.023438 425 138.867188 426.761719 142.929688 426.761719 L 195.355469 426.761719 C 200.832031 426.761719 205.519531 423.382812 207.28125 418.15625 C 209.011719 413.019531 207.363281 407.589844 203.078125 404.328125 C 200.1875 402.128906 196.875 400.367188 193.195312 399.066406 C 195.019531 391.765625 199.179688 372.394531 200.984375 342.539062 C 201.503906 342.578125 202.039062 342.632812 202.539062 342.632812 C 205.519531 342.632812 208.074219 341.949219 210.210938 340.652344 L 210.582031 340.945312 C 212.851562 342.730469 215.582031 343.664062 218.378906 343.664062 C 219.4375 343.664062 220.503906 343.527344 221.5625 343.257812 C 225.4375 342.261719 228.554688 339.574219 230.117188 335.882812 C 235.390625 323.472656 237.472656 307.308594 236.785156 290.128906 C 236.941406 289.53125 236.875 288.902344 236.683594 288.289062 C 236.425781 283.199219 235.933594 278.046875 235.195312 272.863281 C 235.21875 272.421875 235.148438 271.992188 234.996094 271.566406 C 233.214844 259.683594 230.210938 247.800781 226.085938 236.6875 L 225.871094 145.113281 L 232.140625 145.113281 C 240.746094 145.113281 247.746094 138.109375 247.746094 129.503906 L 247.746094 103.542969 C 247.746094 94.9375 240.746094 87.9375 232.140625 87.9375 L 229.855469 87.9375 C 220.664062 37.980469 176.824219 0 124.246094 0 C 71.671875 0 27.828125 37.980469 18.640625 87.941406 L 16.355469 87.941406 C 7.75 87.941406 0.746094 94.941406 0.746094 103.546875 L 0.746094 129.507812 C 0.746094 138.113281 7.75 145.117188 16.355469 145.117188 Z M 29.183594 121.972656 C 29.183594 68.910156 72.355469 25.734375 125.421875 25.734375 C 178.488281 25.734375 221.660156 68.910156 221.660156 121.972656 C 221.660156 126.898438 221.269531 131.835938 220.53125 136.664062 C 216.597656 149.59375 210.132812 161.425781 201.703125 171.582031 C 210.332031 157.667969 215.324219 141.277344 215.324219 123.738281 C 215.324219 73.519531 174.464844 32.664062 124.246094 32.664062 C 74.027344 32.664062 33.171875 73.519531 33.171875 123.738281 C 33.171875 141.277344 38.167969 157.667969 46.789062 171.582031 C 41.714844 165.464844 37.351562 158.730469 33.816406 151.523438 C 30.753906 142.015625 29.183594 132.074219 29.183594 121.972656 Z M 219.578125 238.472656 C 219.582031 238.480469 219.582031 238.484375 219.585938 238.492188 C 223.496094 248.839844 226.378906 259.890625 228.15625 270.964844 C 219.011719 276.386719 209.652344 278.105469 199.695312 276.191406 C 197.445312 259.910156 193.605469 246.09375 189.4375 234.867188 C 198.855469 234.503906 207.042969 229.019531 211.5625 220.957031 C 214.589844 226.425781 217.25 232.324219 219.578125 238.472656 Z M 229.960938 287.339844 C 221.773438 291.695312 212.148438 293.316406 201.292969 292.164062 C 201.097656 289.109375 200.859375 286.113281 200.554688 283.203125 C 202.835938 283.539062 205.105469 283.757812 207.351562 283.757812 C 214.84375 283.757812 222.132812 281.875 229.160156 278.183594 C 229.519531 281.253906 229.78125 284.308594 229.960938 287.339844 Z M 19.335938 278.179688 C 26.363281 281.871094 33.652344 283.753906 41.144531 283.753906 C 43.390625 283.753906 45.660156 283.535156 47.9375 283.199219 C 47.632812 286.109375 47.398438 289.109375 47.203125 292.160156 C 36.339844 293.3125 26.71875 291.691406 18.53125 287.335938 C 18.710938 284.308594 18.976562 281.253906 19.335938 278.179688 Z M 28.910156 238.492188 C 28.914062 238.484375 28.914062 238.480469 28.917969 238.472656 C 31.242188 232.324219 33.90625 226.425781 36.929688 220.957031 C 41.457031 229.019531 49.640625 234.503906 59.0625 234.867188 C 54.894531 246.09375 51.054688 259.910156 48.800781 276.191406 C 38.835938 278.105469 29.484375 276.390625 20.339844 270.964844 C 22.117188 259.894531 25 248.839844 28.910156 238.492188 Z M 193.851562 284.363281 L 173.542969 284.363281 C 168.351562 284.363281 164.125 288.589844 164.125 293.789062 L 164.125 297.648438 L 151.097656 297.648438 C 165.28125 276.339844 172.132812 248.664062 171.949219 213.546875 C 179.125 226.011719 190.292969 250.167969 193.851562 284.363281 Z M 105.671875 297.644531 C 90.507812 277.082031 83.152344 249.542969 83.316406 213.792969 C 89.617188 221.257812 101.703125 229.683594 124.246094 229.683594 C 146.792969 229.683594 158.878906 221.257812 165.179688 213.792969 C 165.339844 249.546875 157.988281 277.082031 142.820312 297.644531 Z M 72.320312 280.574219 C 65.132812 280.574219 59.285156 286.421875 59.285156 293.609375 L 59.285156 297.640625 L 53.707031 297.640625 C 55.367188 256.394531 68.472656 227.5625 76.542969 213.539062 C 76.355469 248.65625 83.210938 276.335938 97.390625 297.640625 L 85.355469 297.640625 L 85.355469 293.609375 C 85.355469 286.421875 79.507812 280.574219 72.320312 280.574219 Z M 128.929688 214.699219 C 140.085938 214.21875 150.8125 212.039062 160.839844 208.394531 C 155.863281 214.800781 145.394531 222.90625 124.246094 222.90625 C 103.09375 222.90625 92.628906 214.792969 87.65625 208.390625 C 97.6875 212.039062 108.410156 214.214844 119.570312 214.699219 C 121.121094 214.777344 122.679688 214.820312 124.25 214.820312 C 125.824219 214.820312 127.375 214.777344 128.929688 214.699219 Z M 124.246094 208.046875 C 77.761719 208.046875 39.945312 170.226562 39.945312 123.742188 C 39.945312 77.261719 77.761719 39.441406 124.246094 39.441406 C 170.734375 39.441406 208.550781 77.261719 208.550781 123.742188 C 208.550781 170.226562 170.734375 208.046875 124.246094 208.046875 Z M 52.027344 186.847656 C 58.964844 193.160156 66.742188 198.550781 75.152344 202.894531 C 72.183594 207.214844 66.953125 215.660156 61.777344 227.984375 C 61.199219 228.039062 60.621094 228.148438 60.039062 228.148438 C 48.960938 228.148438 39.945312 218.46875 39.945312 206.570312 C 39.945312 197.902344 44.746094 190.25 52.027344 186.847656 Z M 53.515625 304.417969 L 59.289062 304.417969 L 59.289062 311.804688 L 53.4375 311.804688 C 53.441406 309.390625 53.472656 306.921875 53.515625 304.417969 Z M 66.058594 293.609375 C 66.058594 290.160156 68.867188 287.351562 72.320312 287.351562 C 75.777344 287.351562 78.582031 290.160156 78.582031 293.609375 L 78.582031 322.828125 C 78.582031 326.277344 75.777344 329.085938 72.320312 329.085938 C 68.867188 329.085938 66.058594 326.277344 66.058594 322.828125 Z M 85.355469 304.417969 L 164.125 304.417969 L 164.125 311.804688 L 85.355469 311.804688 Z M 170.898438 293.785156 C 170.898438 292.324219 172.089844 291.136719 173.542969 291.136719 L 179.226562 291.136719 L 179.226562 322.796875 L 173.542969 322.796875 C 172.085938 322.796875 170.898438 321.609375 170.898438 320.148438 Z M 186.003906 291.136719 L 194.429688 291.136719 C 194.660156 294.386719 194.832031 297.703125 194.917969 301.113281 C 195.101562 308.742188 195.101562 315.972656 194.972656 322.800781 L 186.003906 322.800781 Z M 188.453125 228.144531 C 187.871094 228.144531 187.300781 228.035156 186.71875 227.980469 C 181.542969 215.660156 176.3125 207.210938 173.339844 202.890625 C 181.75 198.546875 189.53125 193.15625 196.46875 186.84375 C 203.746094 190.246094 208.550781 197.902344 208.550781 206.566406 C 208.550781 218.464844 199.535156 228.144531 188.453125 228.144531 Z M 29.371094 157.683594 C 34.09375 166.554688 40.023438 174.679688 46.9375 181.859375 C 38.558594 186.800781 33.171875 196.152344 33.171875 206.570312 C 33.171875 208.71875 33.417969 210.804688 33.851562 212.820312 C 32.21875 215.472656 30.683594 218.25 29.222656 221.113281 Z M 41.097656 334.386719 C 38.859375 332.464844 37.871094 328.167969 38.246094 321.96875 C 38.355469 320.101562 36.933594 318.496094 35.066406 318.378906 C 33.203125 318.238281 31.601562 319.6875 31.480469 321.558594 C 31.117188 327.5625 31.855469 332.203125 33.671875 335.648438 C 32.226562 336.765625 30.382812 337.148438 28.621094 336.695312 C 26.808594 336.226562 25.34375 334.964844 24.605469 333.230469 C 20.125 322.683594 18.128906 309.226562 18.269531 294.773438 C 25 297.796875 32.4375 299.34375 40.539062 299.34375 C 42.601562 299.34375 44.722656 299.207031 46.867188 299.011719 C 46.847656 299.660156 46.8125 300.292969 46.796875 300.949219 C 46.679688 305.851562 46.65625 310.535156 46.667969 315.109375 C 46.667969 315.136719 46.652344 315.160156 46.652344 315.191406 C 46.652344 315.21875 46.667969 315.242188 46.667969 315.273438 C 46.691406 322.539062 46.863281 329.402344 47.152344 335.808594 C 44.480469 336.027344 42.445312 335.550781 41.097656 334.386719 Z M 47.636719 415.992188 C 47.332031 415.089844 46.570312 411.96875 49.523438 409.71875 C 52.574219 407.398438 56.097656 405.726562 60.289062 404.613281 C 61.171875 404.378906 61.921875 403.796875 62.371094 402.996094 C 62.816406 402.203125 62.921875 401.253906 62.664062 400.378906 C 62.617188 400.21875 60.546875 393.078125 58.378906 379.765625 C 67.59375 380.800781 76.464844 381.355469 85.039062 381.355469 C 93.683594 381.355469 102.042969 380.796875 110.222656 379.742188 C 110.277344 385.292969 110.527344 390.851562 110.976562 396.40625 C 99.015625 397.851562 91.371094 406.527344 90.285156 419.988281 L 53.144531 419.988281 C 50.074219 419.984375 48.289062 417.921875 47.636719 415.992188 Z M 110.996094 417.503906 C 109.617188 419.105469 107.683594 419.984375 105.566406 419.984375 L 97.082031 419.984375 C 97.742188 413.074219 100.785156 404.472656 111.59375 403.128906 C 111.910156 405.980469 112.261719 408.828125 112.679688 411.675781 C 112.992188 413.777344 112.375 415.90625 110.996094 417.503906 Z M 124.246094 328.539062 C 119.019531 328.539062 114.574219 332.234375 113.679688 337.332031 C 111.605469 349.101562 110.472656 360.984375 110.238281 372.90625 C 93.6875 375.117188 76.316406 375.09375 57.335938 372.824219 C 55.429688 359.292969 53.695312 341.039062 53.460938 318.578125 L 59.289062 318.578125 L 59.289062 322.828125 C 59.289062 330.015625 65.136719 335.859375 72.324219 335.859375 C 79.511719 335.859375 85.363281 330.015625 85.363281 322.828125 L 85.363281 318.578125 L 164.132812 318.578125 L 164.132812 320.152344 C 164.132812 325.347656 168.359375 329.574219 173.550781 329.574219 L 194.792969 329.574219 C 194.207031 347.050781 192.742188 361.574219 191.15625 372.828125 C 172.175781 375.09375 154.8125 375.117188 138.261719 372.910156 C 138.027344 360.988281 136.898438 349.101562 134.820312 337.332031 C 133.921875 332.234375 129.476562 328.539062 124.246094 328.539062 Z M 137.496094 417.503906 C 136.117188 415.90625 135.503906 413.777344 135.8125 411.675781 C 136.234375 408.828125 136.585938 405.976562 136.902344 403.128906 C 147.707031 404.472656 150.753906 413.074219 151.414062 419.984375 L 142.929688 419.984375 C 140.808594 419.984375 138.878906 419.105469 137.496094 417.503906 Z M 198.972656 409.71875 C 201.925781 411.96875 201.160156 415.089844 200.859375 415.992188 C 200.207031 417.921875 198.414062 419.984375 195.351562 419.984375 L 158.207031 419.984375 C 157.121094 406.523438 149.480469 397.847656 137.515625 396.402344 C 137.96875 390.847656 138.21875 385.292969 138.273438 379.742188 C 146.457031 380.796875 154.8125 381.355469 163.457031 381.355469 C 172.027344 381.355469 180.898438 380.804688 190.105469 379.769531 C 187.941406 393.074219 185.878906 400.226562 185.832031 400.382812 C 185.574219 401.257812 185.679688 402.203125 186.128906 403 C 186.578125 403.796875 187.328125 404.378906 188.210938 404.617188 C 192.398438 405.730469 195.917969 407.398438 198.972656 409.71875 Z M 223.878906 333.238281 C 223.144531 334.972656 221.683594 336.234375 219.867188 336.695312 C 218.101562 337.148438 216.261719 336.765625 214.816406 335.652344 C 216.628906 332.203125 217.367188 327.5625 217.007812 321.558594 C 216.894531 319.695312 215.308594 318.246094 213.417969 318.382812 C 211.554688 318.496094 210.132812 320.101562 210.242188 321.96875 C 210.617188 328.167969 209.628906 332.464844 207.390625 334.390625 C 206.042969 335.554688 204.011719 336.027344 201.332031 335.816406 C 201.808594 325.332031 201.992188 313.714844 201.6875 300.953125 C 201.671875 300.300781 201.636719 299.667969 201.617188 299.015625 C 203.761719 299.214844 205.878906 299.347656 207.945312 299.347656 C 216.042969 299.347656 223.484375 297.804688 230.214844 294.78125 C 230.355469 309.230469 228.359375 322.6875 223.878906 333.238281 Z M 214.644531 212.820312 C 215.074219 210.804688 215.324219 208.71875 215.324219 206.570312 C 215.324219 196.152344 209.933594 186.800781 201.554688 181.859375 C 208.472656 174.683594 214.402344 166.558594 219.125 157.683594 L 219.273438 221.113281 C 217.808594 218.25 216.273438 215.46875 214.644531 212.820312 Z M 232.136719 94.714844 C 237.007812 94.714844 240.96875 98.675781 240.96875 103.546875 L 240.96875 129.507812 C 240.96875 134.378906 237.007812 138.339844 232.136719 138.339844 L 227.09375 138.339844 C 227.105469 138.296875 227.121094 138.25 227.132812 138.203125 C 227.144531 138.15625 227.175781 138.117188 227.179688 138.070312 C 227.183594 138.046875 227.183594 138.023438 227.1875 138.003906 C 230.078125 128.300781 231.652344 118.035156 231.652344 107.40625 C 231.652344 103.109375 231.371094 98.878906 230.875 94.710938 L 232.136719 94.710938 Z M 124.246094 6.773438 C 173.824219 6.773438 215.121094 42.828125 223.355469 90.085938 C 209.898438 48.851562 171.097656 18.960938 125.417969 18.960938 C 74.042969 18.960938 31.332031 56.769531 23.648438 106.027344 C 24.394531 51.175781 69.222656 6.773438 124.246094 6.773438 Z M 7.523438 103.546875 C 7.523438 98.675781 11.484375 94.714844 16.355469 94.714844 L 17.613281 94.714844 C 17.121094 98.878906 16.839844 103.113281 16.839844 107.410156 C 16.839844 118.160156 18.445312 128.542969 21.398438 138.34375 L 16.355469 138.34375 C 11.484375 138.339844 7.523438 134.378906 7.523438 129.507812 Z M 124.246094 234.929688 C 115.191406 234.929688 107.820312 242.296875 107.820312 251.359375 C 107.820312 260.417969 115.191406 267.785156 124.246094 267.785156 C 133.304688 267.785156 140.675781 260.414062 140.675781 251.359375 C 140.675781 242.300781 133.304688 234.929688 124.246094 234.929688 Z M 124.246094 261.011719 C 118.925781 261.011719 114.59375 256.683594 114.59375 251.359375 C 114.59375 246.039062 118.921875 241.707031 124.246094 241.707031 C 129.570312 241.707031 133.898438 246.035156 133.898438 251.359375 C 133.898438 256.679688 129.566406 261.011719 124.246094 261.011719 Z M 96.6875 51.351562 C 90.261719 51.351562 85.03125 56.582031 85.03125 63.007812 C 85.03125 69.433594 90.261719 74.664062 96.6875 74.664062 C 103.113281 74.664062 108.34375 69.433594 108.34375 63.007812 C 108.34375 56.582031 103.117188 51.351562 96.6875 51.351562 Z M 96.6875 67.890625 C 93.996094 67.890625 91.808594 65.699219 91.808594 63.007812 C 91.808594 60.316406 93.996094 58.128906 96.6875 58.128906 C 99.378906 58.128906 101.566406 60.316406 101.566406 63.007812 C 101.566406 65.699219 99.378906 67.890625 96.6875 67.890625 Z M 73.109375 71.734375 C 72.128906 72.074219 71.207031 72.5625 70.378906 73.179688 C 59.34375 81.378906 52.453125 93.125 49.894531 108.085938 C 49.4375 110.761719 50.046875 113.453125 51.621094 115.671875 C 53.191406 117.886719 55.527344 119.359375 58.199219 119.816406 C 58.761719 119.914062 59.335938 119.960938 59.90625 119.960938 C 61.035156 119.960938 62.160156 119.773438 63.230469 119.402344 C 66.734375 118.1875 69.304688 115.164062 69.921875 111.507812 C 71.59375 101.738281 75.707031 94.535156 82.5 89.488281 C 86.996094 86.148438 87.9375 79.773438 84.601562 75.273438 C 81.949219 71.699219 77.332031 70.28125 73.109375 71.734375 Z M 78.460938 84.050781 C 70.203125 90.1875 65.226562 98.796875 63.246094 110.371094 C 63.042969 111.585938 62.1875 112.59375 61.019531 112.996094 C 61.019531 112.996094 61.015625 112.996094 61.015625 113 C 60.480469 113.1875 59.910156 113.238281 59.34375 113.136719 C 58.4375 112.984375 57.683594 112.503906 57.152344 111.753906 C 56.628906 111.015625 56.421875 110.117188 56.574219 109.222656 C 58.832031 96.039062 64.832031 85.738281 74.429688 78.609375 C 74.703125 78.402344 75.011719 78.238281 75.335938 78.128906 C 75.703125 78 76.082031 77.9375 76.453125 77.9375 C 77.503906 77.9375 78.511719 78.429688 79.171875 79.304688 C 80.277344 80.8125 79.964844 82.941406 78.460938 84.050781 Z M 78.460938 84.050781 " clip-rule="nonzero"/></clipPath><linearGradient x1="36.463001" gradientTransform="matrix(3.386986, 0, 0, 3.386986, 0.74765, 0)" y1="0.000000000000044764" x2="36.463001" gradientUnits="userSpaceOnUse" y2="79.864572" id="4996b39239"><stop stop-opacity="1" stop-color="rgb(99.998474%, 87.098694%, 34.899902%)" offset="0"/><stop stop-opacity="1" stop-color="rgb(99.949646%, 86.967468%, 35.005188%)" offset="0.0078125"/><stop stop-opacity="1" stop-color="rgb(99.850464%, 86.705017%, 35.218811%)" offset="0.015625"/><stop stop-opacity="1" stop-color="rgb(99.751282%, 86.442566%, 35.432434%)" offset="0.0234375"/><stop stop-opacity="1" stop-color="rgb(99.6521%, 86.180115%, 35.646057%)" offset="0.03125"/><stop stop-opacity="1" stop-color="rgb(99.552917%, 85.917664%, 35.85968%)" offset="0.0390625"/><stop stop-opacity="1" stop-color="rgb(99.453735%, 85.655212%, 36.073303%)" offset="0.046875"/><stop stop-opacity="1" stop-color="rgb(99.354553%, 85.392761%, 36.286926%)" offset="0.0546875"/><stop stop-opacity="1" stop-color="rgb(99.255371%, 85.13031%, 36.500549%)" offset="0.0625"/><stop stop-opacity="1" stop-color="rgb(99.156189%, 84.867859%, 36.712646%)" offset="0.0703125"/><stop stop-opacity="1" stop-color="rgb(99.057007%, 84.605408%, 36.92627%)" offset="0.078125"/><stop stop-opacity="1" stop-color="rgb(98.959351%, 84.342957%, 37.139893%)" offset="0.0859375"/><stop stop-opacity="1" stop-color="rgb(98.860168%, 84.080505%, 37.353516%)" offset="0.09375"/><stop stop-opacity="1" stop-color="rgb(98.760986%, 83.818054%, 37.567139%)" offset="0.101562"/><stop stop-opacity="1" stop-color="rgb(98.661804%, 83.555603%, 37.780762%)" offset="0.109375"/><stop stop-opacity="1" stop-color="rgb(98.562622%, 83.293152%, 37.994385%)" offset="0.117187"/><stop stop-opacity="1" stop-color="rgb(98.46344%, 83.030701%, 38.208008%)" offset="0.125"/><stop stop-opacity="1" stop-color="rgb(98.364258%, 82.76825%, 38.420105%)" offset="0.132812"/><stop stop-opacity="1" stop-color="rgb(98.265076%, 82.505798%, 38.633728%)" offset="0.140625"/><stop stop-opacity="1" stop-color="rgb(98.165894%, 82.243347%, 38.847351%)" offset="0.148437"/><stop stop-opacity="1" stop-color="rgb(98.066711%, 81.980896%, 39.060974%)" offset="0.15625"/><stop stop-opacity="1" stop-color="rgb(97.967529%, 81.718445%, 39.274597%)" offset="0.164062"/><stop stop-opacity="1" stop-color="rgb(97.869873%, 81.455994%, 39.48822%)" offset="0.171875"/><stop stop-opacity="1" stop-color="rgb(97.770691%, 81.193542%, 39.701843%)" offset="0.179687"/><stop stop-opacity="1" stop-color="rgb(97.671509%, 80.931091%, 39.91394%)" offset="0.1875"/><stop stop-opacity="1" stop-color="rgb(97.572327%, 80.66864%, 40.127563%)" offset="0.195312"/><stop stop-opacity="1" stop-color="rgb(97.473145%, 80.406189%, 40.341187%)" offset="0.203125"/><stop stop-opacity="1" stop-color="rgb(97.373962%, 80.143738%, 40.55481%)" offset="0.210937"/><stop stop-opacity="1" stop-color="rgb(97.27478%, 79.881287%, 40.768433%)" offset="0.21875"/><stop stop-opacity="1" stop-color="rgb(97.175598%, 79.618835%, 40.982056%)" offset="0.226562"/><stop stop-opacity="1" stop-color="rgb(97.076416%, 79.356384%, 41.195679%)" offset="0.234375"/><stop stop-opacity="1" stop-color="rgb(96.977234%, 79.093933%, 41.409302%)" offset="0.242187"/><stop stop-opacity="1" stop-color="rgb(96.879578%, 78.831482%, 41.621399%)" offset="0.25"/><stop stop-opacity="1" stop-color="rgb(96.780396%, 78.569031%, 41.835022%)" offset="0.257812"/><stop stop-opacity="1" stop-color="rgb(96.681213%, 78.30658%, 42.048645%)" offset="0.265625"/><stop stop-opacity="1" stop-color="rgb(96.582031%, 78.044128%, 42.262268%)" offset="0.273437"/><stop stop-opacity="1" stop-color="rgb(96.482849%, 77.781677%, 42.475891%)" offset="0.28125"/><stop stop-opacity="1" stop-color="rgb(96.383667%, 77.519226%, 42.689514%)" offset="0.289062"/><stop stop-opacity="1" stop-color="rgb(96.284485%, 77.256775%, 42.903137%)" offset="0.296875"/><stop stop-opacity="1" stop-color="rgb(96.185303%, 76.994324%, 43.11676%)" offset="0.304687"/><stop stop-opacity="1" stop-color="rgb(96.086121%, 76.731873%, 43.328857%)" offset="0.3125"/><stop stop-opacity="1" stop-color="rgb(95.986938%, 76.469421%, 43.54248%)" offset="0.320312"/><stop stop-opacity="1" stop-color="rgb(95.887756%, 76.20697%, 43.756104%)" offset="0.328125"/><stop stop-opacity="1" stop-color="rgb(95.7901%, 75.944519%, 43.969727%)" offset="0.335937"/><stop stop-opacity="1" stop-color="rgb(95.690918%, 75.682068%, 44.18335%)" offset="0.34375"/><stop stop-opacity="1" stop-color="rgb(95.591736%, 75.419617%, 44.396973%)" offset="0.351562"/><stop stop-opacity="1" stop-color="rgb(95.492554%, 75.157166%, 44.610596%)" offset="0.359375"/><stop stop-opacity="1" stop-color="rgb(95.393372%, 74.894714%, 44.824219%)" offset="0.367187"/><stop stop-opacity="1" stop-color="rgb(95.294189%, 74.632263%, 45.036316%)" offset="0.375"/><stop stop-opacity="1" stop-color="rgb(95.195007%, 74.369812%, 45.249939%)" offset="0.382812"/><stop stop-opacity="1" stop-color="rgb(95.095825%, 74.107361%, 45.463562%)" offset="0.390625"/><stop stop-opacity="1" stop-color="rgb(94.996643%, 73.84491%, 45.677185%)" offset="0.398438"/><stop stop-opacity="1" stop-color="rgb(94.897461%, 73.582458%, 45.890808%)" offset="0.40625"/><stop stop-opacity="1" stop-color="rgb(94.798279%, 73.320007%, 46.104431%)" offset="0.414062"/><stop stop-opacity="1" stop-color="rgb(94.700623%, 73.057556%, 46.318054%)" offset="0.421875"/><stop stop-opacity="1" stop-color="rgb(94.60144%, 72.795105%, 46.531677%)" offset="0.429688"/><stop stop-opacity="1" stop-color="rgb(94.502258%, 72.532654%, 46.743774%)" offset="0.4375"/><stop stop-opacity="1" stop-color="rgb(94.403076%, 72.270203%, 46.957397%)" offset="0.445312"/><stop stop-opacity="1" stop-color="rgb(94.303894%, 72.007751%, 47.171021%)" offset="0.453125"/><stop stop-opacity="1" stop-color="rgb(94.204712%, 71.7453%, 47.384644%)" offset="0.460938"/><stop stop-opacity="1" stop-color="rgb(94.10553%, 71.482849%, 47.598267%)" offset="0.46875"/><stop stop-opacity="1" stop-color="rgb(94.006348%, 71.220398%, 47.81189%)" offset="0.476562"/><stop stop-opacity="1" stop-color="rgb(93.907166%, 70.957947%, 48.025513%)" offset="0.484375"/><stop stop-opacity="1" stop-color="rgb(93.807983%, 70.695496%, 48.239136%)" offset="0.492188"/><stop stop-opacity="1" stop-color="rgb(93.710327%, 70.433044%, 48.451233%)" offset="0.5"/><stop stop-opacity="1" stop-color="rgb(93.611145%, 70.170593%, 48.664856%)" offset="0.507812"/><stop stop-opacity="1" stop-color="rgb(93.511963%, 69.908142%, 48.878479%)" offset="0.515625"/><stop stop-opacity="1" stop-color="rgb(93.412781%, 69.645691%, 49.092102%)" offset="0.523438"/><stop stop-opacity="1" stop-color="rgb(93.313599%, 69.38324%, 49.305725%)" offset="0.53125"/><stop stop-opacity="1" stop-color="rgb(93.214417%, 69.120789%, 49.519348%)" offset="0.539062"/><stop stop-opacity="1" stop-color="rgb(93.115234%, 68.858337%, 49.732971%)" offset="0.546875"/><stop stop-opacity="1" stop-color="rgb(93.016052%, 68.595886%, 49.945068%)" offset="0.554688"/><stop stop-opacity="1" stop-color="rgb(92.91687%, 68.333435%, 50.158691%)" offset="0.5625"/><stop stop-opacity="1" stop-color="rgb(92.817688%, 68.070984%, 50.372314%)" offset="0.570312"/><stop stop-opacity="1" stop-color="rgb(92.718506%, 67.808533%, 50.585938%)" offset="0.578125"/><stop stop-opacity="1" stop-color="rgb(92.62085%, 67.546082%, 50.799561%)" offset="0.585938"/><stop stop-opacity="1" stop-color="rgb(92.521667%, 67.28363%, 51.013184%)" offset="0.59375"/><stop stop-opacity="1" stop-color="rgb(92.422485%, 67.021179%, 51.226807%)" offset="0.601562"/><stop stop-opacity="1" stop-color="rgb(92.323303%, 66.758728%, 51.44043%)" offset="0.609375"/><stop stop-opacity="1" stop-color="rgb(92.224121%, 66.496277%, 51.652527%)" offset="0.617188"/><stop stop-opacity="1" stop-color="rgb(92.124939%, 66.233826%, 51.86615%)" offset="0.625"/><stop stop-opacity="1" stop-color="rgb(92.025757%, 65.971375%, 52.079773%)" offset="0.632812"/><stop stop-opacity="1" stop-color="rgb(91.926575%, 65.708923%, 52.293396%)" offset="0.640625"/><stop stop-opacity="1" stop-color="rgb(91.827393%, 65.446472%, 52.507019%)" offset="0.648438"/><stop stop-opacity="1" stop-color="rgb(91.72821%, 65.184021%, 52.720642%)" offset="0.65625"/><stop stop-opacity="1" stop-color="rgb(91.630554%, 64.92157%, 52.934265%)" offset="0.664062"/><stop stop-opacity="1" stop-color="rgb(91.531372%, 64.659119%, 53.147888%)" offset="0.671875"/><stop stop-opacity="1" stop-color="rgb(91.43219%, 64.396667%, 53.359985%)" offset="0.679688"/><stop stop-opacity="1" stop-color="rgb(91.333008%, 64.134216%, 53.573608%)" offset="0.6875"/><stop stop-opacity="1" stop-color="rgb(91.233826%, 63.871765%, 53.787231%)" offset="0.695312"/><stop stop-opacity="1" stop-color="rgb(91.134644%, 63.609314%, 54.000854%)" offset="0.703125"/><stop stop-opacity="1" stop-color="rgb(91.035461%, 63.346863%, 54.214478%)" offset="0.710938"/><stop stop-opacity="1" stop-color="rgb(90.936279%, 63.084412%, 54.428101%)" offset="0.71875"/><stop stop-opacity="1" stop-color="rgb(90.837097%, 62.82196%, 54.641724%)" offset="0.726562"/><stop stop-opacity="1" stop-color="rgb(90.737915%, 62.559509%, 54.855347%)" offset="0.734375"/><stop stop-opacity="1" stop-color="rgb(90.638733%, 62.297058%, 55.067444%)" offset="0.742188"/><stop stop-opacity="1" stop-color="rgb(90.541077%, 62.034607%, 55.281067%)" offset="0.75"/><stop stop-opacity="1" stop-color="rgb(90.441895%, 61.772156%, 55.49469%)" offset="0.757812"/><stop stop-opacity="1" stop-color="rgb(90.342712%, 61.509705%, 55.708313%)" offset="0.765625"/><stop stop-opacity="1" stop-color="rgb(90.24353%, 61.247253%, 55.921936%)" offset="0.773438"/><stop stop-opacity="1" stop-color="rgb(90.144348%, 60.984802%, 56.135559%)" offset="0.78125"/><stop stop-opacity="1" stop-color="rgb(90.045166%, 60.722351%, 56.349182%)" offset="0.789062"/><stop stop-opacity="1" stop-color="rgb(89.945984%, 60.4599%, 56.562805%)" offset="0.796875"/><stop stop-opacity="1" stop-color="rgb(89.846802%, 60.197449%, 56.774902%)" offset="0.804688"/><stop stop-opacity="1" stop-color="rgb(89.74762%, 59.934998%, 56.988525%)" offset="0.8125"/><stop stop-opacity="1" stop-color="rgb(89.648438%, 59.672546%, 57.202148%)" offset="0.820312"/><stop stop-opacity="1" stop-color="rgb(89.549255%, 59.410095%, 57.415771%)" offset="0.828125"/><stop stop-opacity="1" stop-color="rgb(89.451599%, 59.147644%, 57.629395%)" offset="0.835938"/><stop stop-opacity="1" stop-color="rgb(89.352417%, 58.885193%, 57.843018%)" offset="0.84375"/><stop stop-opacity="1" stop-color="rgb(89.253235%, 58.622742%, 58.056641%)" offset="0.851563"/><stop stop-opacity="1" stop-color="rgb(89.154053%, 58.360291%, 58.268738%)" offset="0.859375"/><stop stop-opacity="1" stop-color="rgb(89.054871%, 58.097839%, 58.482361%)" offset="0.867188"/><stop stop-opacity="1" stop-color="rgb(88.955688%, 57.835388%, 58.695984%)" offset="0.875"/><stop stop-opacity="1" stop-color="rgb(88.856506%, 57.572937%, 58.909607%)" offset="0.882812"/><stop stop-opacity="1" stop-color="rgb(88.757324%, 57.310486%, 59.12323%)" offset="0.890625"/><stop stop-opacity="1" stop-color="rgb(88.658142%, 57.048035%, 59.336853%)" offset="0.898437"/><stop stop-opacity="1" stop-color="rgb(88.55896%, 56.785583%, 59.550476%)" offset="0.90625"/><stop stop-opacity="1" stop-color="rgb(88.461304%, 56.523132%, 59.764099%)" offset="0.914062"/><stop stop-opacity="1" stop-color="rgb(88.362122%, 56.260681%, 59.976196%)" offset="0.921875"/><stop stop-opacity="1" stop-color="rgb(88.262939%, 55.99823%, 60.189819%)" offset="0.929688"/><stop stop-opacity="1" stop-color="rgb(88.163757%, 55.735779%, 60.403442%)" offset="0.9375"/><stop stop-opacity="1" stop-color="rgb(88.064575%, 55.473328%, 60.617065%)" offset="0.945312"/><stop stop-opacity="1" stop-color="rgb(87.965393%, 55.210876%, 60.830688%)" offset="0.953125"/><stop stop-opacity="1" stop-color="rgb(87.866211%, 54.948425%, 61.044312%)" offset="0.960938"/><stop stop-opacity="1" stop-color="rgb(87.767029%, 54.685974%, 61.257935%)" offset="0.96875"/><stop stop-opacity="1" stop-color="rgb(87.667847%, 54.423523%, 61.471558%)" offset="0.976563"/><stop stop-opacity="1" stop-color="rgb(87.568665%, 54.161072%, 61.683655%)" offset="0.984375"/><stop stop-opacity="1" stop-color="rgb(87.469482%, 53.898621%, 61.897278%)" offset="0.992188"/><stop stop-opacity="1" stop-color="rgb(87.371826%, 53.636169%, 62.110901%)" offset="1"/></linearGradient></defs><g clip-path="url(#204ea6b95c)"><g clip-path="url(#af1d738b3e)"><path fill="url(#4996b39239)" d="M 0.746094 0 L 0.746094 270.5 L 247.746094 270.5 L 247.746094 0 Z M 0.746094 0 " fill-rule="nonzero"/></g></g><g fill="#000000" fill-opacity="1"><g transform="translate(275.153324, 187.51676)"><g><path d="M 64.328125 -68.015625 C 64.328125 -71.109375 63.710938 -73.835938 62.484375 -76.203125 C 61.253906 -78.566406 59.59375 -80.519531 57.5 -82.0625 C 55.40625 -83.613281 52.988281 -84.800781 50.25 -85.625 C 47.519531 -86.445312 44.65625 -86.859375 41.65625 -86.859375 C 39.007812 -86.859375 36.503906 -86.515625 34.140625 -85.828125 C 31.773438 -85.148438 29.65625 -84.171875 27.78125 -82.890625 C 25.914062 -81.617188 24.4375 -80.046875 23.34375 -78.171875 C 22.257812 -76.304688 21.71875 -74.148438 21.71875 -71.703125 L 21.71875 -70.875 C 21.71875 -68.238281 22.257812 -65.984375 23.34375 -64.109375 C 24.4375 -62.242188 26.050781 -60.648438 28.1875 -59.328125 C 30.332031 -58.015625 33 -56.925781 36.1875 -56.0625 C 39.375 -55.195312 43.109375 -54.445312 47.390625 -53.8125 C 57.398438 -52.257812 64.769531 -49.320312 69.5 -45 C 74.238281 -40.675781 76.609375 -34.867188 76.609375 -27.578125 L 76.609375 -25.953125 C 76.609375 -21.847656 75.898438 -18.085938 74.484375 -14.671875 C 73.078125 -11.265625 70.984375 -8.332031 68.203125 -5.875 C 65.429688 -3.414062 61.992188 -1.503906 57.890625 -0.140625 C 53.796875 1.222656 49.066406 1.90625 43.703125 1.90625 C 37.597656 1.90625 32.203125 1.019531 27.515625 -0.75 C 22.828125 -2.53125 18.910156 -4.988281 15.765625 -8.125 C 12.628906 -11.269531 10.238281 -14.957031 8.59375 -19.1875 C 6.957031 -23.414062 6.140625 -28.035156 6.140625 -33.046875 L 6.140625 -37.140625 L 17.609375 -37.140625 L 17.609375 -33.875 C 17.609375 -25.488281 19.90625 -19.203125 24.5 -15.015625 C 29.101562 -10.828125 35.503906 -8.734375 43.703125 -8.734375 C 50.804688 -8.734375 56.15625 -10.300781 59.75 -13.4375 C 63.34375 -16.582031 65.140625 -20.753906 65.140625 -25.953125 L 65.140625 -26.765625 C 65.140625 -31.773438 63.296875 -35.597656 59.609375 -38.234375 C 55.921875 -40.878906 49.9375 -42.789062 41.65625 -43.96875 C 36.820312 -44.601562 32.472656 -45.582031 28.609375 -46.90625 C 24.742188 -48.226562 21.441406 -49.957031 18.703125 -52.09375 C 15.972656 -54.238281 13.878906 -56.8125 12.421875 -59.8125 C 10.972656 -62.820312 10.25 -66.375 10.25 -70.46875 L 10.25 -72.109375 C 10.25 -75.835938 11.019531 -79.25 12.5625 -82.34375 C 14.113281 -85.4375 16.273438 -88.117188 19.046875 -90.390625 C 21.828125 -92.671875 25.148438 -94.425781 29.015625 -95.65625 C 32.890625 -96.882812 37.144531 -97.5 41.78125 -97.5 C 47.15625 -97.5 51.957031 -96.722656 56.1875 -95.171875 C 60.425781 -93.628906 64 -91.5625 66.90625 -88.96875 C 69.820312 -86.375 72.03125 -83.320312 73.53125 -79.8125 C 75.039062 -76.3125 75.796875 -72.648438 75.796875 -68.828125 L 75.796875 -63.09375 L 64.328125 -63.09375 Z M 64.328125 -68.015625 "/></g></g></g><g fill="#000000" fill-opacity="1"><g transform="translate(358.72992, 187.51676)"><g><path d="M 9.5625 -67.734375 L 30.859375 -67.734375 L 30.859375 -95.59375 L 41.515625 -95.59375 L 41.515625 -67.734375 L 67.734375 -67.734375 L 67.734375 -57.90625 L 41.515625 -57.90625 L 41.515625 -13.921875 C 41.515625 -11.191406 42.742188 -9.828125 45.203125 -9.828125 L 64.453125 -9.828125 L 64.453125 0 L 41.375 0 C 38.28125 0 35.753906 -1 33.796875 -3 C 31.835938 -5.007812 30.859375 -7.5625 30.859375 -10.65625 L 30.859375 -57.90625 L 9.5625 -57.90625 Z M 9.5625 -67.734375 "/></g></g></g><g fill="#000000" fill-opacity="1"><g transform="translate(442.306516, 187.51676)"><g><path d="M 19.671875 -30.59375 C 19.941406 -23.851562 22.03125 -18.429688 25.9375 -14.328125 C 29.851562 -10.234375 35.316406 -8.1875 42.328125 -8.1875 C 45.515625 -8.1875 48.289062 -8.550781 50.65625 -9.28125 C 53.03125 -10.007812 55.054688 -11.007812 56.734375 -12.28125 C 58.421875 -13.5625 59.785156 -15.039062 60.828125 -16.71875 C 61.878906 -18.40625 62.722656 -20.207031 63.359375 -22.125 L 73.46875 -19.390625 C 71.5625 -13.109375 68.035156 -7.988281 62.890625 -4.03125 C 57.742188 -0.0703125 50.800781 1.90625 42.0625 1.90625 C 37.238281 1.90625 32.800781 1.066406 28.75 -0.609375 C 24.695312 -2.296875 21.210938 -4.6875 18.296875 -7.78125 C 15.378906 -10.875 13.101562 -14.5625 11.46875 -18.84375 C 9.832031 -23.125 9.015625 -27.859375 9.015625 -33.046875 L 9.015625 -36.328125 C 9.015625 -41.054688 9.851562 -45.46875 11.53125 -49.5625 C 13.21875 -53.664062 15.5625 -57.195312 18.5625 -60.15625 C 21.570312 -63.113281 25.101562 -65.429688 29.15625 -67.109375 C 33.207031 -68.796875 37.597656 -69.640625 42.328125 -69.640625 C 47.890625 -69.640625 52.691406 -68.613281 56.734375 -66.5625 C 60.785156 -64.519531 64.109375 -61.992188 66.703125 -58.984375 C 69.304688 -55.984375 71.222656 -52.707031 72.453125 -49.15625 C 73.679688 -45.613281 74.296875 -42.335938 74.296875 -39.328125 L 74.296875 -30.59375 Z M 42.328125 -59.546875 C 39.328125 -59.546875 36.53125 -59.066406 33.9375 -58.109375 C 31.34375 -57.148438 29.066406 -55.804688 27.109375 -54.078125 C 25.148438 -52.347656 23.554688 -50.320312 22.328125 -48 C 21.097656 -45.675781 20.300781 -43.148438 19.9375 -40.421875 L 63.640625 -40.421875 C 63.453125 -43.335938 62.742188 -45.976562 61.515625 -48.34375 C 60.285156 -50.707031 58.691406 -52.707031 56.734375 -54.34375 C 54.785156 -55.988281 52.554688 -57.265625 50.046875 -58.171875 C 47.546875 -59.085938 44.972656 -59.546875 42.328125 -59.546875 Z M 42.328125 -59.546875 "/></g></g></g><g fill="#000000" fill-opacity="1"><g transform="translate(525.883111, 187.51676)"><g><path d="M 11.875 -9.828125 L 36.46875 -9.828125 L 36.46875 -85.765625 L 12.703125 -85.765625 L 12.703125 -95.59375 L 47.109375 -95.59375 L 47.109375 -9.828125 L 71.703125 -9.828125 L 71.703125 0 L 11.875 0 Z M 11.875 -9.828125 "/></g></g></g><g fill="#000000" fill-opacity="1"><g transform="translate(609.459707, 187.51676)"><g><path d="M 11.875 -9.828125 L 36.46875 -9.828125 L 36.46875 -85.765625 L 12.703125 -85.765625 L 12.703125 -95.59375 L 47.109375 -95.59375 L 47.109375 -9.828125 L 71.703125 -9.828125 L 71.703125 0 L 11.875 0 Z M 11.875 -9.828125 "/></g></g></g><g fill="#000000" fill-opacity="1"><g transform="translate(693.036303, 187.51676)"><g><path d="M 11.875 -9.828125 L 36.46875 -9.828125 L 36.46875 -85.765625 L 12.703125 -85.765625 L 12.703125 -95.59375 L 47.109375 -95.59375 L 47.109375 -9.828125 L 71.703125 -9.828125 L 71.703125 0 L 11.875 0 Z M 11.875 -9.828125 "/></g></g></g><g fill="#000000" fill-opacity="1"><g transform="translate(776.612899, 187.51676)"><g><path d="M 61.046875 -11.46875 L 59.40625 -11.46875 C 57.21875 -6.914062 54.1875 -3.546875 50.3125 -1.359375 C 46.445312 0.816406 42.375 1.90625 38.09375 1.90625 C 33.632812 1.90625 29.492188 1.15625 25.671875 -0.34375 C 21.847656 -1.84375 18.5 -4.070312 15.625 -7.03125 C 12.757812 -9.988281 10.507812 -13.609375 8.875 -17.890625 C 7.238281 -22.171875 6.421875 -27.132812 6.421875 -32.78125 L 6.421875 -34.953125 C 6.421875 -40.515625 7.238281 -45.429688 8.875 -49.703125 C 10.507812 -53.984375 12.757812 -57.601562 15.625 -60.5625 C 18.5 -63.519531 21.847656 -65.769531 25.671875 -67.3125 C 29.492188 -68.863281 33.546875 -69.640625 37.828125 -69.640625 C 42.472656 -69.640625 46.679688 -68.613281 50.453125 -66.5625 C 54.234375 -64.519531 57.21875 -61.359375 59.40625 -57.078125 L 61.046875 -57.078125 L 61.046875 -67.734375 L 71.703125 -67.734375 L 71.703125 -13.921875 C 71.703125 -11.191406 72.925781 -9.828125 75.375 -9.828125 L 78.796875 -9.828125 L 78.796875 0 L 71.5625 0 C 68.46875 0 65.941406 -1 63.984375 -3 C 62.023438 -5.007812 61.046875 -7.5625 61.046875 -10.65625 Z M 39.1875 -8.1875 C 42.375 -8.1875 45.3125 -8.78125 48 -9.96875 C 50.6875 -11.15625 52.984375 -12.835938 54.890625 -15.015625 C 56.804688 -17.203125 58.3125 -19.820312 59.40625 -22.875 C 60.5 -25.925781 61.046875 -29.316406 61.046875 -33.046875 L 61.046875 -34.6875 C 61.046875 -38.332031 60.5 -41.675781 59.40625 -44.71875 C 58.3125 -47.769531 56.785156 -50.390625 54.828125 -52.578125 C 52.867188 -54.765625 50.546875 -56.472656 47.859375 -57.703125 C 45.179688 -58.929688 42.289062 -59.546875 39.1875 -59.546875 C 36 -59.546875 33.085938 -58.953125 30.453125 -57.765625 C 27.816406 -56.578125 25.519531 -54.914062 23.5625 -52.78125 C 21.601562 -50.644531 20.078125 -48.050781 18.984375 -45 C 17.890625 -41.945312 17.34375 -38.597656 17.34375 -34.953125 L 17.34375 -32.78125 C 17.34375 -25.039062 19.367188 -19.003906 23.421875 -14.671875 C 27.472656 -10.347656 32.726562 -8.1875 39.1875 -8.1875 Z M 39.1875 -8.1875 "/></g></g></g><g fill="#000000" fill-opacity="1"><g transform="translate(860.189494, 187.51676)"><g><path d="M 8.0625 -67.734375 L 32.640625 -67.734375 L 32.640625 -58.71875 L 34.28125 -58.71875 C 36.007812 -62.457031 38.46875 -65.210938 41.65625 -66.984375 C 44.84375 -68.753906 48.484375 -69.640625 52.578125 -69.640625 C 59.398438 -69.640625 64.90625 -67.410156 69.09375 -62.953125 C 73.28125 -58.492188 75.515625 -51.984375 75.796875 -43.421875 L 64.59375 -41.78125 C 64.59375 -48.070312 63.085938 -52.601562 60.078125 -55.375 C 57.078125 -58.15625 53.394531 -59.546875 49.03125 -59.546875 C 46.207031 -59.546875 43.769531 -59 41.71875 -57.90625 C 39.664062 -56.8125 37.957031 -55.304688 36.59375 -53.390625 C 35.226562 -51.484375 34.226562 -49.253906 33.59375 -46.703125 C 32.957031 -44.148438 32.640625 -41.421875 32.640625 -38.515625 L 32.640625 -9.828125 L 49.84375 -9.828125 L 49.84375 0 L 6.421875 0 L 6.421875 -9.828125 L 21.984375 -9.828125 L 21.984375 -57.90625 L 8.0625 -57.90625 Z M 8.0625 -67.734375 "/></g></g></g></svg>