<svg xmlns="http://www.w3.org/2000/svg" xmlns:xlink="http://www.w3.org/1999/xlink" width="458" zoomAndPan="magnify" viewBox="0 0 343.5 374.999991" height="500" preserveAspectRatio="xMidYMid meet" version="1.0"><defs><clipPath id="fe636c15b0"><path d="M 0 0.273438 L 343 0.273438 L 343 374.726562 L 0 374.726562 Z M 0 0.273438 " clip-rule="nonzero"/></clipPath><clipPath id="05a07d810b"><path d="M 22.085938 201.492188 L 30.789062 201.492188 L 30.488281 328.46875 C 24.769531 343.882812 20.597656 360.355469 18.125 376.832031 C 17.910156 377.425781 17.816406 378.015625 17.847656 378.625 C 16.824219 385.816406 16.144531 392.964844 15.78125 400.023438 C 15.519531 400.867188 15.421875 401.738281 15.640625 402.5625 C 14.6875 426.390625 17.578125 448.796875 24.894531 466.007812 C 27.070312 471.128906 31.398438 474.851562 36.773438 476.230469 C 38.242188 476.609375 39.722656 476.796875 41.1875 476.796875 C 45.074219 476.796875 48.863281 475.5 52.015625 473.023438 L 52.523438 472.625 C 55.488281 474.429688 59.03125 475.367188 63.171875 475.367188 C 63.863281 475.367188 64.605469 475.292969 65.332031 475.242188 C 67.832031 516.644531 73.609375 543.5 76.136719 553.621094 C 71.03125 555.421875 66.441406 557.867188 62.421875 560.917969 C 56.472656 565.441406 54.1875 572.96875 56.59375 580.09375 C 59.039062 587.339844 65.535156 592.023438 73.144531 592.023438 L 145.894531 592.023438 C 151.523438 592.023438 156.863281 589.582031 160.542969 585.324219 C 164.25 581.039062 165.898438 575.355469 165.066406 569.734375 C 160.136719 536.328125 160.589844 502.652344 166.410156 469.644531 C 166.851562 467.078125 169.128906 465.21875 171.8125 465.21875 C 174.496094 465.21875 176.769531 467.078125 177.222656 469.648438 C 183.035156 502.652344 183.492188 536.328125 178.5625 569.738281 C 177.730469 575.359375 179.378906 581.042969 183.082031 585.332031 C 186.765625 589.582031 192.101562 592.023438 197.738281 592.023438 L 270.488281 592.023438 C 278.09375 592.023438 284.59375 587.339844 287.039062 580.09375 C 289.445312 572.96875 287.15625 565.441406 281.210938 560.917969 C 277.195312 557.871094 272.597656 555.421875 267.496094 553.621094 C 270.023438 543.5 275.800781 516.640625 278.300781 475.242188 C 279.023438 475.292969 279.765625 475.367188 280.457031 475.367188 C 284.59375 475.367188 288.144531 474.425781 291.109375 472.625 L 291.621094 473.027344 C 294.769531 475.503906 298.558594 476.800781 302.441406 476.800781 C 303.914062 476.800781 305.394531 476.613281 306.859375 476.238281 C 312.234375 474.855469 316.558594 471.132812 318.730469 466.011719 C 326.050781 448.800781 328.941406 426.390625 327.988281 402.570312 C 328.203125 401.738281 328.109375 400.867188 327.847656 400.019531 C 327.484375 392.960938 326.800781 385.816406 325.777344 378.625 C 325.8125 378.015625 325.710938 377.417969 325.5 376.828125 C 323.027344 360.351562 318.859375 343.878906 313.140625 328.464844 L 312.839844 201.484375 L 321.539062 201.484375 C 333.480469 201.484375 343.195312 191.777344 343.195312 179.84375 L 343.195312 143.847656 C 343.195312 131.914062 333.480469 122.207031 321.539062 122.207031 L 318.371094 122.207031 C 305.613281 52.9375 244.773438 0.273438 171.8125 0.273438 C 98.847656 0.273438 38.007812 52.9375 25.257812 122.210938 L 22.085938 122.210938 C 10.140625 122.210938 0.425781 131.917969 0.425781 143.851562 L 0.425781 179.851562 C 0.425781 191.785156 10.140625 201.492188 22.085938 201.492188 Z M 39.890625 169.398438 C 39.890625 95.820312 99.796875 35.957031 173.441406 35.957031 C 247.085938 35.957031 306.996094 95.820312 306.996094 169.398438 C 306.996094 176.230469 306.453125 183.078125 305.429688 189.773438 C 299.96875 207.699219 290.996094 224.109375 279.300781 238.1875 C 291.273438 218.894531 298.203125 196.171875 298.203125 171.851562 C 298.203125 102.21875 241.503906 45.566406 171.8125 45.566406 C 102.121094 45.566406 45.421875 102.21875 45.421875 171.851562 C 45.421875 196.171875 52.355469 218.894531 64.320312 238.1875 C 57.273438 229.707031 51.222656 220.371094 46.320312 210.375 C 42.066406 197.195312 39.890625 183.410156 39.890625 169.398438 Z M 304.105469 330.941406 C 304.109375 330.953125 304.109375 330.957031 304.113281 330.96875 C 309.542969 345.3125 313.542969 360.640625 316.011719 375.996094 C 303.320312 383.515625 290.332031 385.894531 276.515625 383.242188 C 273.394531 360.667969 268.0625 341.511719 262.277344 325.941406 C 275.347656 325.4375 286.710938 317.832031 292.984375 306.652344 C 297.179688 314.238281 300.875 322.414062 304.105469 330.941406 Z M 318.515625 398.699219 C 307.152344 404.738281 293.796875 406.988281 278.726562 405.390625 C 278.460938 401.15625 278.132812 397 277.707031 392.964844 C 280.871094 393.429688 284.019531 393.734375 287.136719 393.734375 C 297.535156 393.734375 307.648438 391.125 317.402344 386.003906 C 317.898438 390.265625 318.265625 394.496094 318.515625 398.699219 Z M 26.21875 386 C 35.972656 391.117188 46.089844 393.730469 56.484375 393.730469 C 59.601562 393.730469 62.75 393.425781 65.914062 392.960938 C 65.492188 396.992188 65.160156 401.15625 64.894531 405.386719 C 49.820312 406.984375 36.46875 404.734375 25.105469 398.695312 C 25.355469 394.496094 25.722656 390.265625 26.21875 386 Z M 39.507812 330.96875 C 39.511719 330.957031 39.511719 330.953125 39.515625 330.945312 C 42.746094 322.414062 46.441406 314.238281 50.636719 306.652344 C 56.917969 317.832031 68.273438 325.4375 81.351562 325.941406 C 75.570312 341.511719 70.238281 360.667969 67.113281 383.242188 C 53.285156 385.894531 40.308594 383.519531 27.617188 375.996094 C 30.078125 360.644531 34.082031 345.3125 39.507812 330.96875 Z M 268.402344 394.574219 L 240.222656 394.574219 C 233.019531 394.574219 227.152344 400.4375 227.152344 407.640625 L 227.152344 412.996094 L 209.074219 412.996094 C 228.753906 383.449219 238.261719 345.070312 238.007812 296.378906 C 247.96875 313.660156 263.464844 347.15625 268.402344 394.574219 Z M 146.035156 412.988281 C 124.988281 384.476562 114.78125 346.292969 115.007812 296.71875 C 123.753906 307.070312 140.527344 318.75 171.8125 318.75 C 203.097656 318.75 219.871094 307.070312 228.613281 296.71875 C 228.839844 346.296875 218.636719 384.476562 197.585938 412.988281 Z M 99.75 389.320312 C 89.777344 389.320312 81.660156 397.425781 81.660156 407.390625 L 81.660156 412.984375 L 73.917969 412.984375 C 76.222656 355.792969 94.410156 315.8125 105.609375 296.367188 C 105.347656 345.0625 114.863281 383.441406 134.542969 412.984375 L 117.839844 412.984375 L 117.839844 407.390625 C 117.839844 397.425781 109.726562 389.320312 99.75 389.320312 Z M 178.308594 297.980469 C 193.789062 297.3125 208.675781 294.289062 222.59375 289.234375 C 215.683594 298.117188 201.160156 309.359375 171.8125 309.359375 C 142.457031 309.359375 127.933594 298.105469 121.03125 289.230469 C 134.953125 294.289062 149.832031 297.308594 165.320312 297.980469 C 167.472656 298.085938 169.636719 298.144531 171.816406 298.144531 C 173.996094 298.144531 176.152344 298.085938 178.308594 297.980469 Z M 171.8125 288.75 C 107.300781 288.75 54.820312 236.308594 54.820312 171.855469 C 54.820312 107.402344 107.300781 54.960938 171.8125 54.960938 C 236.320312 54.960938 288.800781 107.402344 288.800781 171.855469 C 288.800781 236.308594 236.320312 288.75 171.8125 288.75 Z M 71.585938 259.355469 C 81.214844 268.109375 92.011719 275.585938 103.679688 281.605469 C 99.558594 287.601562 92.300781 299.308594 85.121094 316.398438 C 84.316406 316.472656 83.515625 316.625 82.707031 316.625 C 67.332031 316.625 54.820312 303.203125 54.820312 286.703125 C 54.820312 274.683594 61.488281 264.074219 71.585938 259.355469 Z M 73.65625 422.382812 L 81.664062 422.382812 L 81.664062 432.625 L 73.542969 432.625 C 73.550781 429.277344 73.59375 425.851562 73.65625 422.382812 Z M 91.058594 407.398438 C 91.058594 402.609375 94.957031 398.71875 99.75 398.71875 C 104.546875 398.71875 108.441406 402.609375 108.441406 407.398438 L 108.441406 447.90625 C 108.441406 452.695312 104.546875 456.585938 99.75 456.585938 C 94.957031 456.585938 91.058594 452.695312 91.058594 447.90625 Z M 117.839844 422.382812 L 227.152344 422.382812 L 227.152344 432.625 L 117.839844 432.625 Z M 236.550781 407.636719 C 236.550781 405.613281 238.203125 403.964844 240.222656 403.964844 L 248.109375 403.964844 L 248.109375 447.867188 L 240.222656 447.867188 C 238.199219 447.867188 236.550781 446.21875 236.550781 444.191406 Z M 257.511719 403.96875 L 269.207031 403.96875 C 269.523438 408.472656 269.765625 413.070312 269.882812 417.800781 C 270.136719 428.375 270.140625 438.402344 269.957031 447.871094 L 257.511719 447.871094 Z M 260.914062 316.621094 C 260.105469 316.621094 259.3125 316.46875 258.503906 316.394531 C 251.320312 299.308594 244.0625 287.59375 239.941406 281.601562 C 251.613281 275.582031 262.410156 268.105469 272.035156 259.351562 C 282.136719 264.070312 288.800781 274.683594 288.800781 286.699219 C 288.800781 303.195312 276.289062 316.621094 260.914062 316.621094 Z M 40.148438 218.917969 C 46.699219 231.21875 54.929688 242.484375 64.527344 252.441406 C 52.898438 259.292969 45.421875 272.257812 45.421875 286.703125 C 45.421875 289.683594 45.765625 292.578125 46.367188 295.371094 C 44.101562 299.050781 41.972656 302.902344 39.941406 306.871094 Z M 56.417969 463.9375 C 53.3125 461.269531 51.945312 455.3125 52.460938 446.714844 C 52.617188 444.128906 50.644531 441.902344 48.054688 441.742188 C 45.464844 441.542969 43.238281 443.554688 43.074219 446.148438 C 42.574219 454.472656 43.59375 460.90625 46.117188 465.6875 C 44.109375 467.234375 41.550781 467.765625 39.105469 467.136719 C 36.589844 466.488281 34.558594 464.738281 33.535156 462.335938 C 27.316406 447.710938 24.546875 429.046875 24.738281 409.007812 C 34.078125 413.203125 44.402344 415.34375 55.644531 415.34375 C 58.507812 415.34375 61.449219 415.15625 64.429688 414.882812 C 64.402344 415.785156 64.347656 416.664062 64.332031 417.570312 C 64.164062 424.371094 64.132812 430.863281 64.152344 437.203125 C 64.152344 437.242188 64.128906 437.273438 64.128906 437.316406 C 64.128906 437.359375 64.152344 437.394531 64.152344 437.433594 C 64.183594 447.507812 64.417969 457.023438 64.824219 465.910156 C 61.113281 466.210938 58.289062 465.550781 56.417969 463.9375 Z M 65.496094 577.09375 C 65.074219 575.839844 64.015625 571.511719 68.113281 568.394531 C 72.347656 565.171875 77.238281 562.859375 83.050781 561.3125 C 84.277344 560.988281 85.320312 560.179688 85.941406 559.074219 C 86.5625 557.96875 86.707031 556.652344 86.351562 555.441406 C 86.285156 555.222656 83.414062 545.316406 80.40625 526.859375 C 93.191406 528.296875 105.5 529.0625 117.402344 529.0625 C 129.394531 529.0625 140.996094 528.289062 152.347656 526.828125 C 152.421875 534.523438 152.769531 542.230469 153.394531 549.933594 C 136.792969 551.9375 126.1875 563.964844 124.679688 582.632812 L 73.136719 582.632812 C 68.878906 582.628906 66.398438 579.769531 65.496094 577.09375 Z M 153.421875 579.1875 C 151.507812 581.410156 148.828125 582.628906 145.882812 582.628906 L 134.109375 582.628906 C 135.027344 573.042969 139.253906 561.121094 154.25 559.253906 C 154.6875 563.210938 155.175781 567.160156 155.757812 571.105469 C 156.191406 574.019531 155.335938 576.96875 153.421875 579.1875 Z M 171.8125 455.824219 C 164.554688 455.824219 158.386719 460.953125 157.144531 468.019531 C 154.265625 484.339844 152.695312 500.816406 152.371094 517.347656 C 129.402344 520.417969 105.296875 520.382812 78.953125 517.238281 C 76.3125 498.472656 73.90625 473.160156 73.574219 442.019531 L 81.664062 442.019531 L 81.664062 447.90625 C 81.664062 457.875 89.78125 465.980469 99.757812 465.980469 C 109.730469 465.980469 117.847656 457.875 117.847656 447.90625 L 117.847656 442.019531 L 227.160156 442.019531 L 227.160156 444.199219 C 227.160156 451.402344 233.027344 457.261719 240.234375 457.261719 L 269.714844 457.261719 C 268.894531 481.496094 266.863281 501.636719 264.664062 517.242188 C 238.324219 520.382812 214.226562 520.417969 191.261719 517.355469 C 190.933594 500.824219 189.367188 484.34375 186.484375 468.019531 C 185.234375 460.953125 179.066406 455.824219 171.8125 455.824219 Z M 190.199219 579.1875 C 188.285156 576.96875 187.429688 574.019531 187.863281 571.105469 C 188.445312 567.160156 188.933594 563.207031 189.371094 559.253906 C 204.363281 561.121094 208.59375 573.042969 209.511719 582.628906 L 197.738281 582.628906 C 194.796875 582.628906 192.117188 581.410156 190.199219 579.1875 Z M 275.507812 568.394531 C 279.605469 571.511719 278.542969 575.839844 278.125 577.09375 C 277.222656 579.769531 274.738281 582.628906 270.484375 582.628906 L 218.941406 582.628906 C 217.433594 563.960938 206.828125 551.933594 190.226562 549.929688 C 190.851562 542.226562 191.199219 534.523438 191.273438 526.828125 C 202.628906 528.289062 214.226562 529.0625 226.222656 529.0625 C 238.117188 529.0625 250.429688 528.300781 263.207031 526.863281 C 260.203125 545.3125 257.34375 555.230469 257.277344 555.445312 C 256.917969 556.664062 257.066406 557.972656 257.683594 559.078125 C 258.308594 560.179688 259.347656 560.988281 260.574219 561.316406 C 266.386719 562.863281 271.273438 565.175781 275.507812 568.394531 Z M 310.074219 462.34375 C 309.054688 464.75 307.027344 466.496094 304.507812 467.140625 C 302.054688 467.765625 299.503906 467.234375 297.496094 465.691406 C 300.015625 460.90625 301.039062 454.472656 300.539062 446.152344 C 300.382812 443.5625 298.183594 441.558594 295.558594 441.746094 C 292.96875 441.902344 290.996094 444.128906 291.152344 446.71875 C 291.667969 455.3125 290.300781 461.269531 287.191406 463.941406 C 285.324219 465.558594 282.503906 466.210938 278.785156 465.917969 C 279.445312 451.378906 279.699219 435.273438 279.277344 417.578125 C 279.253906 416.671875 279.207031 415.792969 279.179688 414.890625 C 282.160156 415.164062 285.097656 415.351562 287.964844 415.351562 C 299.203125 415.351562 309.527344 413.210938 318.867188 409.015625 C 319.0625 429.054688 316.292969 447.714844 310.074219 462.34375 Z M 297.257812 295.371094 C 297.851562 292.578125 298.203125 289.683594 298.203125 286.703125 C 298.203125 272.261719 290.722656 259.292969 279.09375 252.441406 C 288.691406 242.492188 296.921875 231.222656 303.476562 218.917969 L 303.683594 306.871094 C 301.652344 302.902344 299.523438 299.046875 297.257812 295.371094 Z M 321.535156 131.601562 C 328.292969 131.601562 333.792969 137.097656 333.792969 143.851562 L 333.792969 179.851562 C 333.792969 186.601562 328.292969 192.097656 321.535156 192.097656 L 314.535156 192.097656 C 314.554688 192.035156 314.574219 191.972656 314.589844 191.90625 C 314.605469 191.839844 314.648438 191.789062 314.65625 191.722656 C 314.660156 191.691406 314.660156 191.65625 314.667969 191.628906 C 318.675781 178.171875 320.859375 163.941406 320.859375 149.207031 C 320.859375 143.246094 320.472656 137.378906 319.785156 131.597656 L 321.535156 131.597656 Z M 171.8125 9.664062 C 240.613281 9.664062 297.917969 59.660156 309.351562 125.1875 C 290.671875 68.007812 236.824219 26.5625 173.4375 26.5625 C 102.140625 26.5625 42.867188 78.988281 32.203125 147.289062 C 33.242188 71.230469 95.449219 9.664062 171.8125 9.664062 Z M 9.824219 143.851562 C 9.824219 137.097656 15.324219 131.601562 22.085938 131.601562 L 23.832031 131.601562 C 23.144531 137.378906 22.757812 143.25 22.757812 149.210938 C 22.757812 164.117188 24.984375 178.511719 29.082031 192.101562 L 22.085938 192.101562 C 15.324219 192.097656 9.824219 186.601562 9.824219 179.851562 Z M 171.8125 326.03125 C 159.242188 326.03125 149.015625 336.246094 149.015625 348.808594 C 149.015625 361.371094 159.242188 371.585938 171.8125 371.585938 C 184.378906 371.585938 194.605469 361.367188 194.605469 348.808594 C 194.605469 336.25 184.378906 326.03125 171.8125 326.03125 Z M 171.8125 362.195312 C 164.425781 362.195312 158.414062 356.191406 158.414062 348.808594 C 158.414062 341.429688 164.421875 335.421875 171.8125 335.421875 C 179.199219 335.421875 185.207031 341.425781 185.207031 348.808594 C 185.207031 356.1875 179.195312 362.195312 171.8125 362.195312 Z M 133.566406 71.480469 C 124.648438 71.480469 117.390625 78.730469 117.390625 87.640625 C 117.390625 96.550781 124.648438 103.800781 133.566406 103.800781 C 142.480469 103.800781 149.738281 96.550781 149.738281 87.640625 C 149.738281 78.730469 142.484375 71.480469 133.566406 71.480469 Z M 133.566406 94.40625 C 129.828125 94.40625 126.792969 91.375 126.792969 87.640625 C 126.792969 83.90625 129.828125 80.871094 133.566406 80.871094 C 137.300781 80.871094 140.339844 83.90625 140.339844 87.640625 C 140.339844 91.375 137.300781 94.40625 133.566406 94.40625 Z M 100.847656 99.738281 C 99.484375 100.210938 98.203125 100.890625 97.058594 101.742188 C 81.738281 113.113281 72.179688 129.402344 68.628906 150.144531 C 67.996094 153.855469 68.84375 157.589844 71.023438 160.664062 C 73.203125 163.738281 76.449219 165.78125 80.152344 166.410156 C 80.9375 166.542969 81.730469 166.609375 82.523438 166.609375 C 84.089844 166.609375 85.652344 166.351562 87.136719 165.835938 C 92 164.15625 95.5625 159.960938 96.421875 154.894531 C 98.742188 141.34375 104.453125 131.355469 113.875 124.355469 C 120.117188 119.726562 121.425781 110.886719 116.792969 104.644531 C 113.113281 99.691406 106.703125 97.722656 100.847656 99.738281 Z M 108.273438 116.820312 C 96.8125 125.328125 89.902344 137.265625 87.160156 153.316406 C 86.871094 155 85.6875 156.394531 84.066406 156.953125 C 84.066406 156.953125 84.0625 156.953125 84.0625 156.960938 C 83.320312 157.21875 82.53125 157.289062 81.738281 157.148438 C 80.484375 156.9375 79.4375 156.269531 78.699219 155.230469 C 77.976562 154.207031 77.6875 152.960938 77.898438 151.722656 C 81.03125 133.441406 89.359375 119.15625 102.675781 109.273438 C 103.054688 108.984375 103.484375 108.761719 103.933594 108.605469 C 104.441406 108.425781 104.96875 108.34375 105.484375 108.34375 C 106.941406 108.34375 108.34375 109.023438 109.253906 110.238281 C 110.792969 112.328125 110.359375 115.277344 108.273438 116.820312 Z M 108.273438 116.820312 " clip-rule="nonzero"/></clipPath><linearGradient x1="36.463001" gradientTransform="matrix(4.700267, 0, 0, 4.696429, 0.425249, 0.272525)" y1="0.000000000000054466" x2="36.463001" gradientUnits="userSpaceOnUse" y2="79.731849" id="58996b897a"><stop stop-opacity="1" stop-color="rgb(99.998474%, 87.098694%, 34.899902%)" offset="0"/><stop stop-opacity="1" stop-color="rgb(99.949646%, 86.967468%, 35.005188%)" offset="0.0078125"/><stop stop-opacity="1" stop-color="rgb(99.850464%, 86.706543%, 35.218811%)" offset="0.015625"/><stop stop-opacity="1" stop-color="rgb(99.751282%, 86.444092%, 35.430908%)" offset="0.0234375"/><stop stop-opacity="1" stop-color="rgb(99.6521%, 86.181641%, 35.644531%)" offset="0.03125"/><stop stop-opacity="1" stop-color="rgb(99.554443%, 85.919189%, 35.858154%)" offset="0.0390625"/><stop stop-opacity="1" stop-color="rgb(99.455261%, 85.658264%, 36.070251%)" offset="0.046875"/><stop stop-opacity="1" stop-color="rgb(99.356079%, 85.395813%, 36.283875%)" offset="0.0546875"/><stop stop-opacity="1" stop-color="rgb(99.256897%, 85.133362%, 36.497498%)" offset="0.0625"/><stop stop-opacity="1" stop-color="rgb(99.157715%, 84.872437%, 36.709595%)" offset="0.0703125"/><stop stop-opacity="1" stop-color="rgb(99.060059%, 84.609985%, 36.923218%)" offset="0.078125"/><stop stop-opacity="1" stop-color="rgb(98.960876%, 84.347534%, 37.136841%)" offset="0.0859375"/><stop stop-opacity="1" stop-color="rgb(98.861694%, 84.085083%, 37.348938%)" offset="0.09375"/><stop stop-opacity="1" stop-color="rgb(98.762512%, 83.824158%, 37.562561%)" offset="0.101563"/><stop stop-opacity="1" stop-color="rgb(98.66333%, 83.561707%, 37.776184%)" offset="0.109375"/><stop stop-opacity="1" stop-color="rgb(98.565674%, 83.299255%, 37.988281%)" offset="0.117188"/><stop stop-opacity="1" stop-color="rgb(98.466492%, 83.03833%, 38.201904%)" offset="0.125"/><stop stop-opacity="1" stop-color="rgb(98.36731%, 82.775879%, 38.414001%)" offset="0.132813"/><stop stop-opacity="1" stop-color="rgb(98.268127%, 82.513428%, 38.627625%)" offset="0.140625"/><stop stop-opacity="1" stop-color="rgb(98.168945%, 82.250977%, 38.841248%)" offset="0.148438"/><stop stop-opacity="1" stop-color="rgb(98.071289%, 81.990051%, 39.053345%)" offset="0.15625"/><stop stop-opacity="1" stop-color="rgb(97.972107%, 81.7276%, 39.266968%)" offset="0.164062"/><stop stop-opacity="1" stop-color="rgb(97.872925%, 81.465149%, 39.480591%)" offset="0.171875"/><stop stop-opacity="1" stop-color="rgb(97.773743%, 81.204224%, 39.692688%)" offset="0.179688"/><stop stop-opacity="1" stop-color="rgb(97.674561%, 80.941772%, 39.906311%)" offset="0.1875"/><stop stop-opacity="1" stop-color="rgb(97.576904%, 80.679321%, 40.119934%)" offset="0.195312"/><stop stop-opacity="1" stop-color="rgb(97.477722%, 80.41687%, 40.332031%)" offset="0.203125"/><stop stop-opacity="1" stop-color="rgb(97.37854%, 80.155945%, 40.545654%)" offset="0.210937"/><stop stop-opacity="1" stop-color="rgb(97.279358%, 79.893494%, 40.757751%)" offset="0.21875"/><stop stop-opacity="1" stop-color="rgb(97.180176%, 79.631042%, 40.971375%)" offset="0.226563"/><stop stop-opacity="1" stop-color="rgb(97.08252%, 79.370117%, 41.184998%)" offset="0.234375"/><stop stop-opacity="1" stop-color="rgb(96.983337%, 79.107666%, 41.397095%)" offset="0.242187"/><stop stop-opacity="1" stop-color="rgb(96.884155%, 78.845215%, 41.610718%)" offset="0.25"/><stop stop-opacity="1" stop-color="rgb(96.784973%, 78.582764%, 41.824341%)" offset="0.257812"/><stop stop-opacity="1" stop-color="rgb(96.685791%, 78.321838%, 42.036438%)" offset="0.265625"/><stop stop-opacity="1" stop-color="rgb(96.588135%, 78.059387%, 42.250061%)" offset="0.273438"/><stop stop-opacity="1" stop-color="rgb(96.488953%, 77.796936%, 42.463684%)" offset="0.28125"/><stop stop-opacity="1" stop-color="rgb(96.389771%, 77.536011%, 42.675781%)" offset="0.289062"/><stop stop-opacity="1" stop-color="rgb(96.290588%, 77.27356%, 42.889404%)" offset="0.296875"/><stop stop-opacity="1" stop-color="rgb(96.191406%, 77.011108%, 43.103027%)" offset="0.304688"/><stop stop-opacity="1" stop-color="rgb(96.09375%, 76.748657%, 43.315125%)" offset="0.3125"/><stop stop-opacity="1" stop-color="rgb(95.994568%, 76.487732%, 43.528748%)" offset="0.320312"/><stop stop-opacity="1" stop-color="rgb(95.895386%, 76.225281%, 43.740845%)" offset="0.328125"/><stop stop-opacity="1" stop-color="rgb(95.796204%, 75.96283%, 43.954468%)" offset="0.335938"/><stop stop-opacity="1" stop-color="rgb(95.697021%, 75.701904%, 44.168091%)" offset="0.34375"/><stop stop-opacity="1" stop-color="rgb(95.599365%, 75.439453%, 44.380188%)" offset="0.351562"/><stop stop-opacity="1" stop-color="rgb(95.500183%, 75.177002%, 44.593811%)" offset="0.359375"/><stop stop-opacity="1" stop-color="rgb(95.401001%, 74.914551%, 44.807434%)" offset="0.367188"/><stop stop-opacity="1" stop-color="rgb(95.301819%, 74.653625%, 45.019531%)" offset="0.375"/><stop stop-opacity="1" stop-color="rgb(95.202637%, 74.391174%, 45.233154%)" offset="0.382812"/><stop stop-opacity="1" stop-color="rgb(95.10498%, 74.128723%, 45.446777%)" offset="0.390625"/><stop stop-opacity="1" stop-color="rgb(95.005798%, 73.867798%, 45.658875%)" offset="0.398438"/><stop stop-opacity="1" stop-color="rgb(94.906616%, 73.605347%, 45.872498%)" offset="0.40625"/><stop stop-opacity="1" stop-color="rgb(94.807434%, 73.342896%, 46.084595%)" offset="0.414062"/><stop stop-opacity="1" stop-color="rgb(94.708252%, 73.080444%, 46.298218%)" offset="0.421875"/><stop stop-opacity="1" stop-color="rgb(94.610596%, 72.819519%, 46.511841%)" offset="0.429688"/><stop stop-opacity="1" stop-color="rgb(94.511414%, 72.557068%, 46.723938%)" offset="0.4375"/><stop stop-opacity="1" stop-color="rgb(94.412231%, 72.294617%, 46.937561%)" offset="0.445312"/><stop stop-opacity="1" stop-color="rgb(94.313049%, 72.033691%, 47.151184%)" offset="0.453125"/><stop stop-opacity="1" stop-color="rgb(94.213867%, 71.77124%, 47.363281%)" offset="0.460938"/><stop stop-opacity="1" stop-color="rgb(94.116211%, 71.508789%, 47.576904%)" offset="0.46875"/><stop stop-opacity="1" stop-color="rgb(94.017029%, 71.246338%, 47.790527%)" offset="0.476562"/><stop stop-opacity="1" stop-color="rgb(93.917847%, 70.985413%, 48.002625%)" offset="0.484375"/><stop stop-opacity="1" stop-color="rgb(93.818665%, 70.722961%, 48.216248%)" offset="0.492188"/><stop stop-opacity="1" stop-color="rgb(93.719482%, 70.46051%, 48.428345%)" offset="0.5"/><stop stop-opacity="1" stop-color="rgb(93.621826%, 70.199585%, 48.641968%)" offset="0.507812"/><stop stop-opacity="1" stop-color="rgb(93.522644%, 69.937134%, 48.855591%)" offset="0.515625"/><stop stop-opacity="1" stop-color="rgb(93.423462%, 69.674683%, 49.067688%)" offset="0.523438"/><stop stop-opacity="1" stop-color="rgb(93.32428%, 69.412231%, 49.281311%)" offset="0.53125"/><stop stop-opacity="1" stop-color="rgb(93.225098%, 69.151306%, 49.494934%)" offset="0.539062"/><stop stop-opacity="1" stop-color="rgb(93.127441%, 68.888855%, 49.707031%)" offset="0.546875"/><stop stop-opacity="1" stop-color="rgb(93.028259%, 68.626404%, 49.920654%)" offset="0.554687"/><stop stop-opacity="1" stop-color="rgb(92.929077%, 68.365479%, 50.134277%)" offset="0.5625"/><stop stop-opacity="1" stop-color="rgb(92.829895%, 68.103027%, 50.346375%)" offset="0.570312"/><stop stop-opacity="1" stop-color="rgb(92.730713%, 67.840576%, 50.559998%)" offset="0.578125"/><stop stop-opacity="1" stop-color="rgb(92.633057%, 67.578125%, 50.773621%)" offset="0.585938"/><stop stop-opacity="1" stop-color="rgb(92.533875%, 67.3172%, 50.985718%)" offset="0.59375"/><stop stop-opacity="1" stop-color="rgb(92.434692%, 67.054749%, 51.199341%)" offset="0.601562"/><stop stop-opacity="1" stop-color="rgb(92.33551%, 66.792297%, 51.411438%)" offset="0.609375"/><stop stop-opacity="1" stop-color="rgb(92.236328%, 66.531372%, 51.625061%)" offset="0.617188"/><stop stop-opacity="1" stop-color="rgb(92.138672%, 66.268921%, 51.838684%)" offset="0.625"/><stop stop-opacity="1" stop-color="rgb(92.03949%, 66.00647%, 52.050781%)" offset="0.632812"/><stop stop-opacity="1" stop-color="rgb(91.940308%, 65.744019%, 52.264404%)" offset="0.640625"/><stop stop-opacity="1" stop-color="rgb(91.841125%, 65.483093%, 52.478027%)" offset="0.648438"/><stop stop-opacity="1" stop-color="rgb(91.741943%, 65.220642%, 52.690125%)" offset="0.65625"/><stop stop-opacity="1" stop-color="rgb(91.644287%, 64.958191%, 52.903748%)" offset="0.664062"/><stop stop-opacity="1" stop-color="rgb(91.545105%, 64.697266%, 53.117371%)" offset="0.671875"/><stop stop-opacity="1" stop-color="rgb(91.445923%, 64.434814%, 53.329468%)" offset="0.679688"/><stop stop-opacity="1" stop-color="rgb(91.346741%, 64.172363%, 53.543091%)" offset="0.6875"/><stop stop-opacity="1" stop-color="rgb(91.247559%, 63.909912%, 53.755188%)" offset="0.695312"/><stop stop-opacity="1" stop-color="rgb(91.149902%, 63.648987%, 53.968811%)" offset="0.703125"/><stop stop-opacity="1" stop-color="rgb(91.05072%, 63.386536%, 54.182434%)" offset="0.710938"/><stop stop-opacity="1" stop-color="rgb(90.951538%, 63.124084%, 54.394531%)" offset="0.71875"/><stop stop-opacity="1" stop-color="rgb(90.852356%, 62.863159%, 54.608154%)" offset="0.726562"/><stop stop-opacity="1" stop-color="rgb(90.753174%, 62.600708%, 54.821777%)" offset="0.734375"/><stop stop-opacity="1" stop-color="rgb(90.655518%, 62.338257%, 55.033875%)" offset="0.742188"/><stop stop-opacity="1" stop-color="rgb(90.556335%, 62.075806%, 55.247498%)" offset="0.75"/><stop stop-opacity="1" stop-color="rgb(90.457153%, 61.81488%, 55.461121%)" offset="0.757812"/><stop stop-opacity="1" stop-color="rgb(90.357971%, 61.552429%, 55.673218%)" offset="0.765625"/><stop stop-opacity="1" stop-color="rgb(90.260315%, 61.289978%, 55.886841%)" offset="0.773438"/><stop stop-opacity="1" stop-color="rgb(90.161133%, 61.029053%, 56.100464%)" offset="0.78125"/><stop stop-opacity="1" stop-color="rgb(90.061951%, 60.766602%, 56.312561%)" offset="0.789062"/><stop stop-opacity="1" stop-color="rgb(89.962769%, 60.50415%, 56.526184%)" offset="0.796875"/><stop stop-opacity="1" stop-color="rgb(89.863586%, 60.241699%, 56.738281%)" offset="0.804687"/><stop stop-opacity="1" stop-color="rgb(89.76593%, 59.980774%, 56.951904%)" offset="0.8125"/><stop stop-opacity="1" stop-color="rgb(89.666748%, 59.718323%, 57.165527%)" offset="0.820312"/><stop stop-opacity="1" stop-color="rgb(89.567566%, 59.455872%, 57.377625%)" offset="0.828125"/><stop stop-opacity="1" stop-color="rgb(89.468384%, 59.194946%, 57.591248%)" offset="0.835937"/><stop stop-opacity="1" stop-color="rgb(89.369202%, 58.932495%, 57.804871%)" offset="0.84375"/><stop stop-opacity="1" stop-color="rgb(89.271545%, 58.670044%, 58.016968%)" offset="0.851562"/><stop stop-opacity="1" stop-color="rgb(89.172363%, 58.407593%, 58.230591%)" offset="0.859375"/><stop stop-opacity="1" stop-color="rgb(89.073181%, 58.146667%, 58.444214%)" offset="0.867188"/><stop stop-opacity="1" stop-color="rgb(88.973999%, 57.884216%, 58.656311%)" offset="0.875"/><stop stop-opacity="1" stop-color="rgb(88.874817%, 57.621765%, 58.869934%)" offset="0.882812"/><stop stop-opacity="1" stop-color="rgb(88.777161%, 57.36084%, 59.082031%)" offset="0.890625"/><stop stop-opacity="1" stop-color="rgb(88.677979%, 57.098389%, 59.295654%)" offset="0.898438"/><stop stop-opacity="1" stop-color="rgb(88.578796%, 56.835938%, 59.509277%)" offset="0.90625"/><stop stop-opacity="1" stop-color="rgb(88.479614%, 56.573486%, 59.721375%)" offset="0.914063"/><stop stop-opacity="1" stop-color="rgb(88.380432%, 56.312561%, 59.934998%)" offset="0.921875"/><stop stop-opacity="1" stop-color="rgb(88.282776%, 56.05011%, 60.148621%)" offset="0.929687"/><stop stop-opacity="1" stop-color="rgb(88.183594%, 55.787659%, 60.360718%)" offset="0.9375"/><stop stop-opacity="1" stop-color="rgb(88.084412%, 55.526733%, 60.574341%)" offset="0.945313"/><stop stop-opacity="1" stop-color="rgb(87.985229%, 55.264282%, 60.787964%)" offset="0.953125"/><stop stop-opacity="1" stop-color="rgb(87.886047%, 55.001831%, 61.000061%)" offset="0.960937"/><stop stop-opacity="1" stop-color="rgb(87.788391%, 54.73938%, 61.213684%)" offset="0.96875"/><stop stop-opacity="1" stop-color="rgb(87.689209%, 54.478455%, 61.427307%)" offset="0.976562"/><stop stop-opacity="1" stop-color="rgb(87.590027%, 54.216003%, 61.639404%)" offset="0.984375"/><stop stop-opacity="1" stop-color="rgb(87.490845%, 53.953552%, 61.853027%)" offset="0.992188"/><stop stop-opacity="1" stop-color="rgb(87.391663%, 53.692627%, 62.065125%)" offset="1"/></linearGradient></defs><g clip-path="url(#fe636c15b0)"><g clip-path="url(#05a07d810b)"><path fill="url(#58996b897a)" d="M 0.425781 0.273438 L 0.425781 374.726562 L 343 374.726562 L 343 0.273438 Z M 0.425781 0.273438 " fill-rule="nonzero"/></g></g></svg>